<svg id="Layer_1" data-name="Layer 1" xmlns="http://www.w3.org/2000/svg" viewBox="0 0 1080 1080"><title>SkipBackward Icon</title><path d="M212.22,271.82l-65.78-36.95c.81,68.85,1.6,137,2.41,206.06L325.48,335.62l-58.66-33.09c10.14-9.9,19.37-19.71,29.43-28.59,30.05-26.53,63.13-48.49,100.18-64.08,54.06-22.73,110.15-33.58,169-29.22,70.78,5.26,135.42,27.24,192.8,69.44C821.43,296.54,865.87,356.85,891,431.2c13.71,40.54,20.81,82.18,19.2,125.07-3,78.52-25.9,150.21-74.12,212.93-67.47,87.73-156.9,135.95-266.74,146.18-36.38,3.39-72.5-.56-108.22-8.36a352,352,0,0,1-110.61-44.46c-14.68-9.06-27.56-5.1-35.84,10.11-2.29,4.22-4.85,8.3-7,12.57-6,11.78.05,23.73,9.21,29.16,57.86,34.32,119.85,56.45,187.11,61.82,90.41,7.21,175.63-10.56,254.14-56.68Q891.85,841,945.64,695.15c35.15-95.76,34.94-192.14,2.43-288.27-20.68-61.12-54.51-114.58-99.92-160.71C798.57,195.8,739.93,160.35,672.9,138.74c-90.87-29.29-181.77-27.51-271.79,3.14-73.47,25-135.32,68-186,126.78C214.23,269.65,213.33,270.6,212.22,271.82Z"/><path d="M505.68,570q28.66,26.68,28.66,69.55,0,29.91-14.45,53.1T477,729.3q-28.42,13.47-69.3,13.46a207.86,207.86,0,0,1-71.54-12.21q-33.66-12.21-54.1-32.66l17.45-28.42q17.44,18,46.37,29.17a169.34,169.34,0,0,0,61.82,11.22q42.87,0,66.31-18.7t23.43-51.6q0-32.4-23.43-50.85t-70.8-18.45H378.29V543.84L475,422.69H296.53V390.78H520.88v25.43L422.17,540.35Q477,543.34,505.68,570Z"/><path d="M651.75,721.33q-31.66-21.44-49.35-61.58t-17.7-94.47q0-54.35,17.7-94.48t49.35-61.57q31.66-21.44,72-21.44t72.05,21.44q31.65,21.43,49.6,61.57t17.95,94.48q0,54.35-17.95,94.47t-49.6,61.58q-31.67,21.43-72.05,21.43T651.75,721.33Zm125.64-28.42q23.19-16.95,36.15-49.36t13-78.27q0-45.87-13-78.28t-36.15-49.36q-23.19-16.93-53.6-16.95T670.2,437.64Q647,454.61,634.05,487t-13,78.28q0,45.87,13,78.27t36.15,49.36q23.19,17,53.59,17T777.39,692.91Z"/></svg>