<svg id="Layer_1" data-name="Layer 1" xmlns="http://www.w3.org/2000/svg" viewBox="0 0 1080 1080"><title>SkipForward Icon</title><path d="M912.1,328.84,983,303c-11.93,67.82-23.74,134.92-35.72,203L790,373.47l63.23-23.16c-8.4-11.41-15.92-22.59-24.41-33-25.35-31-54.44-58.07-88.48-79.45-49.66-31.18-103.25-51-162-56.18-70.7-6.27-138,5-201.49,37.31Q272,272.44,216.52,376.24C196.42,414,182.68,454,177.33,496.57c-9.78,78,1.24,152.41,38.68,222.11,52.36,97.5,132.81,159.55,239.54,187.43,35.34,9.23,71.63,11.18,108.13,9.26A351.72,351.72,0,0,0,680,889.4c16-6.56,28-.57,33.72,15.78,1.58,4.54,3.45,9,4.92,13.54,4.06,12.6-3.89,23.41-13.81,27.29-62.64,24.5-127.39,36.31-194.63,30.72-90.38-7.52-171.59-38.85-241.6-97.07Q149.39,780.48,119.9,627.87C100.72,527.69,116.53,432.61,164.16,343c30.3-57,72.33-104.25,124.61-142.42,57.07-41.68,120.66-67.18,190.3-77.65,94.41-14.2,183.81,2.27,267.68,47.09,68.45,36.58,122.52,89,163,155.21C910.47,326.37,911.2,327.46,912.1,328.84Z"/><path d="M469.68,569q28.67,26.68,28.66,69.55,0,29.91-14.45,53.1T441,728.3q-28.42,13.47-69.3,13.46a207.86,207.86,0,0,1-71.54-12.21q-33.66-12.21-54.1-32.66l17.45-28.42q17.44,18,46.37,29.17a169.34,169.34,0,0,0,61.82,11.22q42.87,0,66.31-18.7t23.43-51.6q0-32.4-23.43-50.85t-70.8-18.45H342.29V542.84L439,421.69H260.53V389.78H484.88v25.43L386.17,539.35Q441,542.34,469.68,569Z"/><path d="M615.75,720.33q-31.66-21.44-49.35-61.58t-17.7-94.47q0-54.35,17.7-94.48t49.35-61.57q31.66-21.44,72-21.44t72.05,21.44q31.65,21.43,49.6,61.57t17.95,94.48q0,54.35-17.95,94.47t-49.6,61.58q-31.67,21.43-72.05,21.43T615.75,720.33Zm125.64-28.42q23.19-16.95,36.15-49.36t13-78.27q0-45.87-13-78.28t-36.15-49.36q-23.19-16.93-53.6-16.95T634.2,436.64Q611,453.61,598.05,486t-13,78.28q0,45.87,13,78.27t36.15,49.36q23.19,17,53.59,17T741.39,691.91Z"/></svg>